<svg xmlns="http://www.w3.org/2000/svg" viewBox="0 0 20.23 14.77"><title>email-icon</title><g id="Layer_2" data-name="Layer 2"><g id="Layer_1-2" data-name="Layer 1"><g id="Layer_17" data-name="Layer 17"><path d="M17.21,0H3A3,3,0,0,0,0,3v8.72a3,3,0,0,0,3,3H17.21a3,3,0,0,0,3-3V3A3,3,0,0,0,17.21,0Zm0,1.61h.12L10.19,6.83,3,1.61H17.23ZM18.61,11.7a1.45,1.45,0,0,1-1.45,1.46H3.06A1.45,1.45,0,0,1,1.61,11.7V3a1.43,1.43,0,0,1,.07-.46l8,5.8a.77.77,0,0,0,.91,0l8-5.8a1.44,1.44,0,0,1,.08.46Z"/></g></g></g></svg>