<svg xmlns="http://www.w3.org/2000/svg" viewBox="0 0 20.33 20.33"><defs><style>.cls-1{stroke:#000;stroke-miterlimit:10;stroke-width:0.1px;}</style></defs><title>instagram-icon</title><g id="Layer_2" data-name="Layer 2"><g id="Layer_1-2" data-name="Layer 1"><path class="cls-1" d="M10.06,4.86A5.18,5.18,0,1,0,15.23,10,5.18,5.18,0,0,0,10.06,4.86Zm0,8.49A3.32,3.32,0,1,1,13.37,10,3.34,3.34,0,0,1,10.06,13.35Z"/><circle class="cls-1" cx="15.44" cy="4.73" r="1.17"/><path class="cls-1" d="M18.64,1.72A5.79,5.79,0,0,0,14.36.05H5.92A5.87,5.87,0,0,0,.05,5.92v8.4a5.89,5.89,0,0,0,1.71,4.37A6,6,0,0,0,6,20.28h8.32a6,6,0,0,0,4.28-1.59,5.82,5.82,0,0,0,1.68-4.33V6A5.81,5.81,0,0,0,18.64,1.72Zm-.39,12.57a3.88,3.88,0,0,1-1.18,2.92,4.29,4.29,0,0,1-3,1H5.75a4.29,4.29,0,0,1-3-1,4,4,0,0,1-1.1-3V6a4,4,0,0,1,1.1-2.93,4.22,4.22,0,0,1,3-1h8.42a4.12,4.12,0,0,1,3,1.08A4.12,4.12,0,0,1,18.25,6v8.25Z"/></g></g></svg>