<?xml version="1.0" encoding="utf-8"?>
<!-- Generator: Adobe Illustrator 23.1.0, SVG Export Plug-In . SVG Version: 6.00 Build 0)  -->
<svg version="1.1" id="Layer_1" xmlns="http://www.w3.org/2000/svg" xmlns:xlink="http://www.w3.org/1999/xlink" x="0px" y="0px"
	 viewBox="0 0 244.9 244.9" style="enable-background:new 0 0 244.9 244.9;" xml:space="preserve">
<style type="text/css">
	.st0{fill:none;stroke:#735A51;stroke-miterlimit:10;stroke-dasharray:1,4;}
	.st1{fill:none;stroke:#735A51;stroke-miterlimit:10;}
	.st2{fill:none;stroke:#231F20;stroke-miterlimit:10;}
	.st3{fill:none;stroke:#735A51;stroke-miterlimit:10;stroke-dasharray:1.01,4.04;}
	.st4{fill:none;stroke:#70585E;stroke-miterlimit:10;}
	.st5{fill:none;}
	.st6{clip-path:url(#SVGID_2_);}
	.st7{fill:#70585E;}
	.st8{font-family:'OpenSans-SemiBold';}
	.st9{font-size:46.92px;}
	.st10{letter-spacing:1.1;}
	.st11{clip-path:url(#SVGID_4_);}
	.st12{fill:#70595E;}
	.st13{clip-path:url(#SVGID_6_);}
	.st14{clip-path:url(#SVGID_8_);}
</style>
<title>logo-thumbnail</title>
<g>
	<g id="Layer_1-2">
		<line class="st0" x1="150.4" y1="195.6" x2="89.7" y2="195.6"/>
		<polyline class="st1" points="74.9,49.3 49.3,49.3 49.3,72.2 49.3,80.9 49.3,89.7 49.3,150.3 49.3,160.2 49.3,170 49.3,195.6 
			72.2,195.6 		"/>
		<line class="st2" x1="155.2" y1="49.3" x2="154.7" y2="49.3"/>
		<line class="st3" x1="150.6" y1="49.3" x2="97.1" y2="49.3"/>
		<line class="st2" x1="95" y1="49.3" x2="94.5" y2="49.3"/>
		<polyline class="st1" points="172.7,49.3 195.6,49.3 195.6,74.9 195.6,84.7 195.6,94.5 195.6,155.2 195.6,163.9 195.6,172.7 
			195.6,195.6 170,195.6 		"/>
		<line class="st2" x1="49.3" y1="89.7" x2="49.3" y2="80.9"/>
		<polyline class="st1" points="42.8,95.6 42.8,143 42.8,152.8 42.8,162.7 42.8,202.1 78,202.1 		"/>
		<polyline class="st1" points="166.9,42.8 202.1,42.8 202.1,82.2 202.1,92 202.1,101.9 202.1,149.3 202.1,158.1 202.1,166.9 
			202.1,202.1 162.7,202.1 		"/>
		<line class="st1" x1="149.3" y1="42.8" x2="101.9" y2="42.8"/>
		<polyline class="st1" points="42.8,86.8 42.8,78 42.8,42.8 82.2,42.8 		"/>
		<line class="st1" x1="143" y1="202.1" x2="95.6" y2="202.1"/>
		<path class="st1" d="M42.8,95.6v-8.8 M49.3,89.7v-8.8 M135.7,208.7h-34.3 M155.4,208.7h53.3V36.2H161 M89.5,36.2H36.2v172.4h47.6
			 M143.5,36.2h-34.3"/>
		<polyline class="st4" points="36.2,135.7 19.2,116.6 36.2,101.4 		"/>
		<polyline class="st1" points="208.7,109.2 225.7,128.2 208.7,143.5 		"/>
		<polyline class="st1" points="195.6,94.5 155.2,49.3 149.3,42.8 143.5,36.2 128.3,19.2 109.2,36.2 101.9,42.8 94.5,49.3 
			49.3,89.7 		"/>
		<polyline class="st1" points="49.3,150.3 89.7,195.6 95.6,202.1 101.4,208.7 116.6,225.7 135.7,208.7 143,202.1 150.4,195.6 
			195.6,155.2 		"/>
		<polyline class="st1" points="36.2,145.5 10,116.1 36.2,92.6 		"/>
		<polyline class="st1" points="49.3,160.2 80.9,195.6 86.8,202.1 92.6,208.7 116.1,234.9 145.5,208.7 152.9,202.1 160.2,195.6 
			195.6,163.9 		"/>
		<polyline class="st1" points="208.7,99.4 234.9,128.8 208.7,152.2 		"/>
		<polyline class="st1" points="195.6,84.7 163.9,49.3 158.1,42.8 152.3,36.2 128.8,10 99.4,36.2 92,42.8 84.7,49.3 49.3,80.9 
			49.3,89.7 		"/>
		<line class="st2" x1="42.8" y1="95.6" x2="42.8" y2="86.8"/>
		<path class="st1" d="M49.3,89.7v-8.8 M42.8,95.6v-8.8 M36.2,155.3L0.7,115.6l35.5-31.7 M195.6,172.7L170,195.6l-7.3,6.6l-7.3,6.6
			l-39.8,35.5l-31.7-35.5l-5.9-6.6l-5.8-6.6L49.3,170 M208.7,89.5l35.5,39.8L208.7,161 M195.6,74.8l-22.8-25.5l-5.9-6.5l-5.9-6.6
			L129.3,0.7L89.5,36.2l-7.3,6.5l-7.3,6.5L49.3,72.2"/>
		<line class="st5" x1="108.9" y1="118.6" x2="109.4" y2="139.6"/>
		<line class="st5" x1="108.6" y1="107" x2="108.9" y2="118.6"/>
		<line class="st5" x1="108.5" y1="99" x2="108.6" y2="107"/>
		<g>
			<defs>
				<rect id="SVGID_1_" x="78.3" y="99" width="29.1" height="53.8"/>
			</defs>
			<clipPath id="SVGID_2_">
				<use xlink:href="#SVGID_1_"  style="overflow:visible;"/>
			</clipPath>
			<g class="st6">
				<text transform="matrix(0.88 0 0 1 98.7798 142.14)" class="st7 st8 st9 st10">P</text>
			</g>
		</g>
		<g>
			<defs>
				<rect id="SVGID_3_" x="109.7" y="92.1" width="25.4" height="55.2"/>
			</defs>
			<clipPath id="SVGID_4_">
				<use xlink:href="#SVGID_3_"  style="overflow:visible;"/>
			</clipPath>
			<g class="st11">
				<text transform="matrix(0.88 0 0 1 99.9897 142.14)" class="st12 st8 st9 st10">P</text>
			</g>
		</g>
		<g>
			<defs>
				<rect id="SVGID_5_" x="110.9" y="79.7" width="26.6" height="84.2"/>
			</defs>
			<clipPath id="SVGID_6_">
				<use xlink:href="#SVGID_5_"  style="overflow:visible;"/>
			</clipPath>
			<g class="st13">
				<text transform="matrix(0.88 0 0 1 126.6396 142.14)" class="st12 st8 st9 st10">S</text>
			</g>
		</g>
		<g>
			<defs>
				<rect id="SVGID_7_" x="140" y="81" width="26.6" height="84.2"/>
			</defs>
			<clipPath id="SVGID_8_">
				<use xlink:href="#SVGID_7_"  style="overflow:visible;"/>
			</clipPath>
			<g class="st14">
				<text transform="matrix(0.88 0 0 1 129.0596 142.14)" class="st12 st8 st9 st10">S</text>
			</g>
		</g>
	</g>
</g>
</svg>
