<svg xmlns="http://www.w3.org/2000/svg" xmlns:xlink="http://www.w3.org/1999/xlink" viewBox="0 0 203.87 192.62"><defs><style>.cls-1,.cls-2,.cls-3,.cls-4,.cls-5{fill:none;}.cls-2,.cls-3,.cls-4,.cls-5{stroke:#231f20;stroke-miterlimit:10;}.cls-2{stroke-dasharray:1 4;}.cls-3{stroke-width:2px;}.cls-5{stroke-dasharray:0.95 3.8;}.cls-6{font-size:14.49px;font-family:SortsMillGoudy-Regular, Sorts Mill Goudy;letter-spacing:0.21em;}.cls-7{letter-spacing:0.19em;}.cls-8{letter-spacing:0.21em;}.cls-9{font-size:10.35px;font-family:Nunito-Regular, Nunito;letter-spacing:0.21em;}.cls-10{letter-spacing:0.19em;}.cls-11{clip-path:url(#clip-path);}.cls-12,.cls-15{font-size:29.67px;font-family:OpenSans-SemiBold, Open Sans;font-weight:600;}.cls-12{letter-spacing:0.03em;}.cls-13{clip-path:url(#clip-path-2);}.cls-14{clip-path:url(#clip-path-3);}.cls-15{letter-spacing:0.03em;}.cls-16{clip-path:url(#clip-path-4);}</style><clipPath id="clip-path"><rect class="cls-1" x="74.17" y="63.57" width="18.25" height="34.04"/></clipPath><clipPath id="clip-path-2"><rect class="cls-1" x="93.95" y="59.21" width="15.97" height="34.91"/></clipPath><clipPath id="clip-path-3"><rect class="cls-1" x="94.71" y="51.35" width="16.73" height="53.24"/></clipPath><clipPath id="clip-path-4"><rect class="cls-1" x="112.96" y="52.23" width="16.73" height="53.24"/></clipPath></defs><title>logo-2</title><g id="Layer_2" data-name="Layer 2"><g id="Layer_1-2" data-name="Layer 1"><line class="cls-2" x1="119.46" y1="124.65" x2="81.39" y2="124.65"/><polyline class="cls-3" points="72.06 32.16 56.01 32.16 56.01 46.6 56.01 52.16 56.01 57.72 56.01 96.06 56.01 102.27 56.01 108.49 56.01 124.65 70.35 124.65"/><line class="cls-4" x1="122.49" y1="32.17" x2="121.99" y2="32.17"/><line class="cls-5" x1="118.18" y1="32.17" x2="86.81" y2="32.17"/><line class="cls-4" x1="84.91" y1="32.17" x2="84.41" y2="32.17"/><polyline class="cls-3" points="133.52 32.16 147.86 32.16 147.86 48.32 147.86 54.55 147.86 60.76 147.86 99.1 147.86 104.66 147.86 110.21 147.86 124.65 131.82 124.65"/><line class="cls-3" x1="56.01" y1="57.72" x2="56.01" y2="52.16"/><polyline class="cls-3" points="51.9 61.42 51.9 91.42 51.9 97.64 51.9 103.86 51.9 128.79 74.02 128.79"/><polyline class="cls-3" points="129.85 28.02 151.98 28.02 151.98 52.96 151.98 59.18 151.98 65.4 151.98 95.4 151.98 100.96 151.98 106.51 151.98 128.79 127.21 128.79"/><line class="cls-3" x1="118.81" y1="28.02" x2="89.02" y2="28.02"/><polyline class="cls-3" points="51.9 55.86 51.9 50.3 51.9 28.02 76.66 28.02"/><line class="cls-3" x1="114.86" y1="128.79" x2="85.06" y2="128.79"/><path class="cls-3" d="M51.9,61.42V55.86M56,57.72V52.16m54.25,80.77H88.73m33.87,0h33.49v-109H126.17m-44.9,0H47.78V132.93H77.7m37.44-109H93.61"/><polyline class="cls-3" points="47.78 86.79 37.09 74.74 47.78 65.11"/><polyline class="cls-3" points="156.09 70.03 166.78 82.08 156.09 91.7"/><polyline class="cls-3" points="147.86 60.76 122.49 32.16 118.81 28.02 115.14 23.88 105.58 13.12 93.61 23.88 89.02 28.02 84.41 32.16 56.01 57.72"/><polyline class="cls-3" points="56.01 96.06 81.39 124.65 85.06 128.79 88.73 132.93 98.29 143.7 110.26 132.93 114.86 128.79 119.46 124.65 147.86 99.1"/><polyline class="cls-3" points="47.78 93 31.29 74.41 47.78 59.56"/><polyline class="cls-3" points="56.01 102.27 75.87 124.65 79.54 128.79 83.22 132.93 97.96 149.55 116.43 132.93 121.03 128.79 125.63 124.65 147.86 104.66"/><polyline class="cls-3" points="156.09 63.82 172.59 82.41 156.09 97.26"/><polyline class="cls-3" points="147.86 54.55 128 32.16 124.33 28.02 120.66 23.88 105.91 7.27 87.45 23.88 82.84 28.02 78.24 32.16 56.01 52.16 56.01 57.72"/><line class="cls-3" x1="51.9" y1="61.42" x2="51.9" y2="55.86"/><path class="cls-3" d="M56,57.72V52.16M51.9,61.42V55.86M47.78,99.22,25.47,74.07,47.78,54m100.08,56.21-16,14.44-4.61,4.14-4.61,4.14-25,22.47L77.7,132.93,74,128.79l-3.67-4.14L56,108.49M156.09,57.6,178.4,82.74l-22.31,20.07m-8.23-54.49L133.52,32.17,129.85,28l-3.68-4.14L106.24,1.42l-25,22.46L76.66,28l-4.6,4.15L56,46.6"/><text class="cls-6" transform="translate(0 173.21) scale(0.99 1)">PEYT<tspan class="cls-7" x="49.56" y="0">O</tspan><tspan class="cls-8" x="64.73" y="0">NSILHOUETTE</tspan></text><text class="cls-9" transform="translate(51.47 189.77) scale(0.99 1)">BRI<tspan class="cls-10" x="23.22" y="0">D</tspan><tspan x="32.87" y="0">AL HOUSE</tspan></text><line class="cls-1" x1="93.44" y1="75.95" x2="93.74" y2="89.23"/><line class="cls-1" x1="93.27" y1="68.61" x2="93.44" y2="75.95"/><line class="cls-1" x1="93.15" y1="63.57" x2="93.27" y2="68.61"/><g class="cls-11"><text class="cls-12" transform="translate(87.07 90.86) scale(0.87 1)">P</text></g><g class="cls-13"><text class="cls-12" transform="translate(87.83 90.86) scale(0.87 1)">P</text></g><g class="cls-14"><text class="cls-15" transform="translate(104.57 90.86) scale(0.87 1)">S</text></g><g class="cls-16"><text class="cls-15" transform="translate(106.09 90.86) scale(0.87 1)">S</text></g></g></g></svg>