<svg xmlns="http://www.w3.org/2000/svg" xmlns:xlink="http://www.w3.org/1999/xlink" viewBox="0 0 161.66 151.28"><defs><style>.cls-1,.cls-2,.cls-3,.cls-4{fill:none;}.cls-2,.cls-3,.cls-4{stroke:#231f20;stroke-miterlimit:10;}.cls-2{stroke-dasharray:1 4;}.cls-4{stroke-dasharray:1.01 4.03;}.cls-5{font-size:11.41px;font-family:SortsMillGoudy-Regular, Sorts Mill Goudy;letter-spacing:0.21em;}.cls-6{letter-spacing:0.19em;}.cls-7{font-size:8.15px;font-family:Nunito-Regular, Nunito;letter-spacing:0.21em;}.cls-8{letter-spacing:0.19em;}.cls-9{letter-spacing:0.21em;}.cls-10{clip-path:url(#clip-path);}.cls-11{font-size:23.37px;font-family:OpenSans-SemiBold, Open Sans;font-weight:600;letter-spacing:0.03em;}.cls-12{clip-path:url(#clip-path-2);}.cls-13{clip-path:url(#clip-path-3);}.cls-14{clip-path:url(#clip-path-4);}</style><clipPath id="clip-path"><rect class="cls-1" x="58.82" y="49.65" width="14.47" height="26.8"/></clipPath><clipPath id="clip-path-2"><rect class="cls-1" x="74.5" y="46.22" width="12.67" height="27.49"/></clipPath><clipPath id="clip-path-3"><rect class="cls-1" x="75.1" y="40.03" width="13.27" height="41.92"/></clipPath><clipPath id="clip-path-4"><rect class="cls-1" x="89.58" y="40.72" width="13.27" height="41.92"/></clipPath></defs><title>logo</title><g id="Layer_2" data-name="Layer 2"><g id="Layer_1-2" data-name="Layer 1"><line class="cls-2" x1="94.73" y1="97.76" x2="64.53" y2="97.76"/><polyline class="cls-3" points="57.14 24.92 44.41 24.92 44.41 36.29 44.41 40.67 44.41 45.04 44.41 75.24 44.41 80.13 44.41 85.03 44.41 97.75 55.78 97.75"/><line class="cls-3" x1="97.13" y1="24.92" x2="96.63" y2="24.92"/><line class="cls-4" x1="92.6" y1="24.92" x2="69.45" y2="24.92"/><line class="cls-3" x1="67.43" y1="24.92" x2="66.93" y2="24.92"/><polyline class="cls-3" points="105.88 24.92 117.25 24.92 117.25 37.65 117.25 42.55 117.25 47.44 117.25 77.63 117.25 82.01 117.25 86.38 117.25 97.75 104.52 97.75"/><line class="cls-3" x1="44.41" y1="45.04" x2="44.41" y2="40.67"/><polyline class="cls-3" points="41.15 47.96 41.15 71.58 41.15 76.48 41.15 81.38 41.15 101.02 58.7 101.02"/><polyline class="cls-3" points="102.96 21.66 120.51 21.66 120.51 41.3 120.51 46.2 120.51 51.09 120.51 74.72 120.51 79.09 120.51 83.47 120.51 101.02 100.87 101.02"/><line class="cls-3" x1="94.21" y1="21.66" x2="70.58" y2="21.66"/><polyline class="cls-3" points="41.15 43.58 41.15 39.2 41.15 21.66 60.79 21.66"/><line class="cls-3" x1="91.08" y1="101.02" x2="67.45" y2="101.02"/><path class="cls-3" d="M41.15,48V43.58M44.41,45V40.67m43,63.61H70.36m26.86,0h26.55V18.4H100.05m-35.61,0H37.89v85.88H61.61M91.3,18.4H74.23"/><polyline class="cls-3" points="37.89 67.94 29.41 58.45 37.89 50.87"/><polyline class="cls-3" points="123.77 54.74 132.25 64.23 123.77 71.81"/><polyline class="cls-3" points="117.25 47.44 97.13 24.92 94.21 21.66 91.3 18.4 83.72 9.92 74.23 18.4 70.58 21.66 66.93 24.92 44.41 45.04"/><polyline class="cls-3" points="44.41 75.24 64.53 97.75 67.45 101.02 70.36 104.28 77.94 112.76 87.43 104.28 91.08 101.02 94.73 97.75 117.25 77.63"/><polyline class="cls-3" points="37.89 72.83 24.81 58.19 37.89 46.49"/><polyline class="cls-3" points="44.41 80.13 60.16 97.75 63.07 101.02 65.99 104.28 77.68 117.36 92.32 104.28 95.97 101.02 99.62 97.75 117.25 82.01"/><polyline class="cls-3" points="123.77 49.85 136.85 64.49 123.77 76.18"/><polyline class="cls-3" points="117.25 42.55 101.5 24.92 98.59 21.66 95.67 18.4 83.98 5.32 69.34 18.4 65.69 21.66 62.04 24.92 44.41 40.67 44.41 45.04"/><line class="cls-3" x1="41.15" y1="47.96" x2="41.15" y2="43.58"/><path class="cls-3" d="M44.41,45V40.67M41.15,48V43.58M37.89,77.73,20.2,57.92l17.69-15.8m79.36,44.26L104.52,97.76,100.87,101l-3.65,3.26L77.42,122,61.61,104.28,58.7,101l-2.92-3.26L44.41,85M123.77,45l17.69,19.8L123.77,80.56m-6.52-42.91L105.88,24.92,103,21.66l-2.91-3.26L84.24.71,64.44,18.4l-3.65,3.26-3.65,3.26L44.41,36.29"/><text class="cls-5" transform="translate(0 135.99)">PEYT<tspan class="cls-6" x="39.03" y="0">O</tspan><tspan x="50.98" y="0">NSILHOUETTE</tspan></text><text class="cls-7" transform="translate(40.81 149.04)">BRI<tspan class="cls-8" x="18.29" y="0">D</tspan><tspan class="cls-9" x="25.89" y="0">AL HOUSE</tspan></text><line class="cls-1" x1="74.09" y1="59.4" x2="74.33" y2="69.86"/><line class="cls-1" x1="73.96" y1="53.62" x2="74.09" y2="59.4"/><line class="cls-1" x1="73.86" y1="49.65" x2="73.96" y2="53.62"/><g class="cls-10"><text class="cls-11" transform="translate(69.04 71.15) scale(0.88 1)">P</text></g><g class="cls-12"><text class="cls-11" transform="translate(69.65 71.15) scale(0.88 1)">P</text></g><g class="cls-13"><text class="cls-11" transform="translate(82.92 71.15) scale(0.88 1)">S</text></g><g class="cls-14"><text class="cls-11" transform="translate(84.12 71.15) scale(0.88 1)">S</text></g></g></g></svg>