<svg xmlns="http://www.w3.org/2000/svg" viewBox="0 0 24.45 24.5"><defs><style>.cls-1{fill:none;stroke:#000;stroke-linecap:round;stroke-linejoin:round;stroke-width:2px;}</style></defs><title>phone-icon</title><g id="Layer_2" data-name="Layer 2"><g id="Layer_1-2" data-name="Layer 1"><path class="cls-1" d="M23.45,17.84v3.39A2.26,2.26,0,0,1,21.2,23.5H21A22.39,22.39,0,0,1,11.25,20a22,22,0,0,1-6.78-6.77A22.45,22.45,0,0,1,1,3.46,2.25,2.25,0,0,1,3.05,1H6.64A2.26,2.26,0,0,1,8.9,2.94a14.29,14.29,0,0,0,.79,3.17A2.27,2.27,0,0,1,9.18,8.5L7.75,9.93a18,18,0,0,0,6.77,6.77L16,15.27a2.25,2.25,0,0,1,2.38-.51,14.43,14.43,0,0,0,3.17.79A2.26,2.26,0,0,1,23.45,17.84Z"/></g></g></svg>